<svg xmlns="http://www.w3.org/2000/svg" viewBox="0 0 64.65 52.12"><defs><style>.cls-1{fill:#b2b2b2;}.cls-2{fill:#1d1d1b;}.cls-3{fill:#878787;}</style></defs><g id="Capa_2" data-name="Capa 2"><g id="T.Presentacion"><polygon class="cls-1" points="64.65 46.56 27 34.12 27 12.93 64.64 0.78 63.56 4.57 30.3 15.31 30.3 31.75 62.68 42.46 64.65 46.56"/><rect class="cls-1" x="20.41" y="12.92" width="3.3" height="39.21"/><rect class="cls-1" x="7.21" y="12.92" width="3.3" height="21.2"/><rect class="cls-1" x="0.61" y="17.03" width="3.3" height="12.97"/><rect class="cls-1" x="0.61" y="23.87" width="3.3" height="6.13"/><rect class="cls-1" x="7.21" y="23.87" width="3.3" height="10.25"/><rect class="cls-1" x="38.27" y="18.93" width="2.34" height="9.18" transform="translate(78.88 47.04) rotate(180)"/><rect class="cls-1" x="20.41" y="23.87" width="3.3" height="28.25"/><rect class="cls-1" x="13.81" y="12.92" width="3.3" height="39.21"/><rect class="cls-1" x="13.81" y="23.87" width="3.3" height="28.25"/><rect class="cls-1" x="27" y="23.87" width="3.3" height="10.25"/><polygon class="cls-1" points="64.64 46.55 62.68 42.46 28.03 31.09 27 34.22 64.64 46.55"/><rect class="cls-1" x="38.27" y="23.52" width="2.32" height="4.59"/><polygon class="cls-2" points="64.04 45.79 26.39 33.34 26.39 12.15 64.02 0 62.95 3.79 29.69 14.53 29.69 30.97 62.06 41.68 64.04 45.79"/><rect class="cls-2" x="19.79" y="12.14" width="3.3" height="39.21"/><rect class="cls-2" x="6.6" y="12.14" width="3.3" height="21.2"/><rect class="cls-2" y="16.25" width="3.3" height="12.97"/><rect class="cls-3" y="23.09" width="3.3" height="6.13"/><rect class="cls-3" x="6.6" y="23.09" width="3.3" height="10.25"/><rect class="cls-2" x="37.66" y="18.15" width="2.34" height="9.18" transform="translate(77.65 45.48) rotate(180)"/><rect class="cls-3" x="19.79" y="23.09" width="3.3" height="28.25"/><rect class="cls-2" x="13.2" y="12.14" width="3.3" height="39.21"/><rect class="cls-3" x="13.2" y="23.09" width="3.3" height="28.25"/><polygon class="cls-3" points="64.02 45.77 62.06 41.68 29.69 31.06 29.69 23.09 26.39 23.09 26.39 33.34 26.42 33.34 26.39 33.44 64.02 45.77"/><rect class="cls-3" x="37.66" y="22.74" width="2.32" height="4.59"/></g></g></svg>